<svg xmlns="http://www.w3.org/2000/svg" viewBox="0 0 256 256"><rect width="256" height="256" fill="none"/><path fill="none" stroke="#000" stroke-linecap="round" stroke-linejoin="round" stroke-width="12" d="M240,120H176V80h42.58374a8,8,0,0,1,7.42781,5.02887Z"/><line x1="16" x2="176" y1="144" y2="144" fill="none" stroke="#000" stroke-linecap="round" stroke-linejoin="round" stroke-width="12"/><circle cx="188" cy="192" r="24" fill="none" stroke="#000" stroke-linecap="round" stroke-linejoin="round" stroke-width="12"/><circle cx="68" cy="192" r="24" fill="none" stroke="#000" stroke-linecap="round" stroke-linejoin="round" stroke-width="12"/><line x1="164" x2="92" y1="192" y2="192" fill="none" stroke="#000" stroke-linecap="round" stroke-linejoin="round" stroke-width="12"/><path fill="none" stroke="#000" stroke-linecap="round" stroke-linejoin="round" stroke-width="12" d="M44 192H24a8 8 0 0 1-8-8V72a8 8 0 0 1 8-8H176V171.21508M176 171.21508V120h64v64a8 8 0 0 1-8 8H212"/></svg>